<svg width="68" height="38" viewBox="0 0 68 38" xmlns="http://www.w3.org/2000/svg"><g fill="none" fill-rule="evenodd"><g fill="#F3AC61"><g><path d="M57.72 29.85H68V38H54.834c-6.43 0-11.3-1.672-14.612-5.01-3.305-3.345-4.963-7.97-4.963-13.88 0-5.24 1.103-9.402 3.31-12.476C41.76 2.21 47.18 0 54.833 0H68v8.29H57.72c-4.085 0-6.946.554-8.59 1.66-2.348 1.588-3.52 4.64-3.52 9.16 0 3.268.63 5.693 1.902 7.28 1.874 2.31 5.28 3.46 10.207 3.46zM21.3 13.09L4.51 5.96 0 13.526l18.278 5.434-18.26 5.06 4.51 7.567 16.695-6.718L10.718 38h9.43l12.593-19.01L20.165 0h-9.42L21.3 13.09z"/></g></g></g></svg>