<svg width="70" height="61" viewBox="0 0 70 61" xmlns="http://www.w3.org/2000/svg"><g fill="none" fill-rule="evenodd"><g fill="#77DA97"><g><path d="M30.395 20.5l17.108 11.094c1.442.936 3.36.546 4.333-.873L69.434 5.04c1-1.46.637-3.46-.805-4.468-1.45-1.007-3.43-.645-4.432.816L48.35 24.516 31.144 13.35c-.714-.46-1.582-.616-2.408-.432-.826.185-1.547.695-2.002 1.412L.498 56.063c-.945 1.504-.504 3.483.98 4.433.532.34 1.12.504 1.7.504 1.058 0 2.087-.532 2.69-1.497L30.394 20.5zm34.293 15.64L49.064 50.39l-18.36-14.4c-.35-.276-.757-.474-1.19-.58l-2.444-.618-3.59 5.717 3.85.964 19.935 15.64c.58.446 1.267.673 1.953.673.77 0 1.533-.277 2.135-.83l17.598-16.05c1.303-1.192 1.408-3.22.232-4.533-1.183-1.32-3.192-1.418-4.494-.234zm-62.272-.922l4.767 1.2L10.78 30.7l-6.83-1.71C2.24 28.56.52 29.61.1 31.33c-.428 1.718.608 3.462 2.316 3.888z"/></g></g></g></svg>